<svg xmlns="http://www.w3.org/2000/svg" width="92" height="64" viewBox="0 0 92 64">
    <g fill="none" fill-rule="evenodd">
        <path fill="#FFF" d="M38.05 6.98c2.948-3.071 7.055-4.978 11.595-4.978 6.035 0 11.302 3.366 14.106 8.363a19.494 19.494 0 0 1 7.974-1.695c10.886 0 19.71 8.902 19.71 19.885 0 10.983-8.824 19.885-19.71 19.885-1.331 0-2.629-.133-3.884-.386-2.469 4.403-7.177 7.379-12.578 7.379-2.261 0-4.4-.52-6.303-1.451C46.456 59.872 40.623 64 33.826 64c-7.078 0-13.112-4.48-15.427-10.761a15.176 15.176 0 0 1-3.137.327C6.833 53.567 0 46.663 0 38.146a15.442 15.442 0 0 1 7.631-13.357 17.662 17.662 0 0 1-1.46-7.053C6.171 7.94 14.122 0 23.93 0a17.73 17.73 0 0 1 14.12 6.98"/>
    </g>
</svg>